# xmcd
#
# Track frame offsets:
#	150
#	7865
#	11615
#	19490
#	26390
#	32090
#	39890
#	47540
#	55565
#	62090
#	68740
#	74840
#	83390
#	90290
#	97990
#	105290
#	114140
#	121690
#	128165
#	136190
#	143165
#	150965
#	156740
#	165065
#	172315
#	179740
#	188090
#	195140
#	201440
#	208190
#	216590
#	224690
#	233315
#
# Disc length: 3227 seconds
#
# Revision: 1
# Processed by: cddbd v1.5.1PL0 Copyright (c) Steve Scherf et al.
# Submitted via: CDex 1.50Beta5
#
DISCID=af0c9921
DTITLE=らいむ隊 - らいむろ戦奇譚 オリジナル・サウンドトラック
DYEAR=2003
DGENRE=
TTITLE0=らいむ隊/凛花
TTITLE1=TVサントラ/M-1
TTITLE2=TVサントラ/M-2
TTITLE3=TVサントラ/M-3
TTITLE4=TVサントラ/M-4
TTITLE5=TVサントラ/M-5
TTITLE6=TVサントラ/M-6
TTITLE7=TVサントラ/M-7
TTITLE8=TVサントラ/M-8
TTITLE9=TVサントラ/M-9
TTITLE10=TVサントラ/M-10
TTITLE11=TVサントラ/M-11
TTITLE12=TVサントラ/M-12
TTITLE13=TVサントラ/M-13
TTITLE14=TVサントラ/M-14
TTITLE15=清水愛/心の記憶
TTITLE16=TVサントラ/M-15
TTITLE17=TVサントラ/M-16
TTITLE18=TVサントラ/M-17
TTITLE19=TVサントラ/M-18
TTITLE20=TVサントラ/M-19
TTITLE21=TVサントラ/M-20
TTITLE22=TVサントラ/M-21
TTITLE23=TVサントラ/M-22
TTITLE24=TVサントラ/M-23
TTITLE25=TVサントラ/M-24
TTITLE26=TVサントラ/M-25
TTITLE27=TVサントラ/M-26
TTITLE28=TVサントラ/M-27
TTITLE29=TVサントラ/M-28
TTITLE30=TVサントラ/M-29
TTITLE31=TVサントラ/M-30
TTITLE32=at Gallery/空のむこう
EXTD=
EXTT0=
EXTT1=
EXTT2=
EXTT3=
EXTT4=
EXTT5=
EXTT6=
EXTT7=
EXTT8=
EXTT9=
EXTT10=
EXTT11=
EXTT12=
EXTT13=
EXTT14=
EXTT15=
EXTT16=
EXTT17=
EXTT18=
EXTT19=
EXTT20=
EXTT21=
EXTT22=
EXTT23=
EXTT24=
EXTT25=
EXTT26=
EXTT27=
EXTT28=
EXTT29=
EXTT30=
EXTT31=
EXTT32=
PLAYORDER=
